# xmcd
#
# Track frame offsets: 
#        150
#        12683
#        28739
#        39070
#        57019
#        81411
#        92273
#        113627
#        131920
#        139653
#        153131
#
# Disc length: 2241 seconds
#
# Revision: 0
# Processed by: cddbd v1.5.2PL0 Copyright (c) Steve Scherf et al.
# Submitted via: ExactAudioCopy v0.95b2
#
DISCID=8108bf0b
DTITLE=Schuman The Human - Showtime For Schuman
DYEAR=2007
DGENRE=Country
TTITLE0=Klutz
TTITLE1=Charlie Varick
TTITLE2=Oh How Happy
TTITLE3=Dark Regrets
TTITLE4=Tow That Line
TTITLE5=Coming to Pieces
TTITLE6=The Ballad of Robert Crumb
TTITLE7=A Weekend Away
TTITLE8=The Pier-end Incident
TTITLE9=Marlena's Game
TTITLE10=The Wares to Make it Through
EXTD=
EXTT0=
EXTT1=
EXTT2=
EXTT3=
EXTT4=
EXTT5=
EXTT6=
EXTT7=
EXTT8=
EXTT9=
EXTT10=
PLAYORDER=
